<?xml version="1.0" encoding="UTF-8"?>
<svg id="Layer_2" data-name="Layer 2" xmlns="http://www.w3.org/2000/svg" viewBox="0 0 718.9 413.04">
  <defs>
    <style>
      .cls-1 {
        fill: #fff;
        stroke-width: 0px;
      }
    </style>
  </defs>
  <path class="cls-1" d="M718.9,23.66l-.42,3.38c-4.71,37.94-17.72,73.44-38.65,105.53l-2.03,3.12-47.51-48.25-.78,101.57-1.09.89c-13.24,10.88-27.66,20.41-42.83,28.35l-2.56,1.33-75.44-131.85c-.26-.47-.5-.9-.74-1.32l-.06-.08c-.04-.08-.08-.15-.12-.22-13.11-22.55-31.41-42.25-52.94-56.97l-8.02-5.48h273.19Z"/>
  <path class="cls-1" d="M611.8,321.5l-133.75-233.77-.22-.38c-28.2-39.88-74.32-63.69-123.37-63.69H46.65C20.93,23.66,0,44.59,0,70.31c0,7.65,1.9,15.24,5.52,22.01l68.15,118.94h227.28l14.71,25.7,14.7-25.7h34.88l-49.58,86.71-32.27-56.42H91.03l9.71,16.96.2.31c27.69,40.99,73.71,65.84,123.14,66.45h93.24l37.23,65.08h217.84c25.26-.83,45.05-21.3,45.05-46.61,0-7.75-1.95-15.44-5.64-22.24ZM204,155.18c-18.77,0-34.05-15.28-34.05-34.05s15.28-34.05,34.05-34.05,34.05,15.27,34.05,34.05-15.27,34.05-34.05,34.05Z"/>
</svg>